#!OML:ASF X:\für Bonn\!DataBase\2005_08_12_Daniel\c3d\Daniel.ASF
:FULLY-SPECIFIED
:DEGREES
2465
root 0.287021 17.1549 -23.1608 -191.8 -48.9523 550.154
lowerback 13.1437 0.788727 2.38188
upperback 2.58086 1.18611 -0.269705
thorax -4.59257 0.479219 -1.82101
lowerneck -2.88247 10.5552 2.91948
upperneck 9.02755 15.0357 -15.3768
head 4.59255 6.62476 -4.34004
rclavicle 1.74931e-014 -2.94201e-014
rhumerus -50.4707 14.1881 -93.4049
rradius 81.502
rwrist 4.80468
rhand -30.4329 30.6464
rfingers 7.12502
rthumb -3.73548 0.699394
lclavicle 1.74931e-014 -2.94201e-014
lhumerus -78.0239 -7.53615 99.1802
lradius 99.7888
lwrist 16.9192
lhand -4.48902 -8.83698
lfingers 7.12502
lthumb 21.2843 20.0143
rfemur 10.9068 5.40766 18.9178
rtibia 33.7805
rfoot -13.1249 -6.45928
rtoes -26.6196
lfemur -31.1335 5.40493 -28.4162
ltibia 71.6451
lfoot -12.4966 -6.94914
ltoes -10.5606
2466
root 0.0760348 17.2897 -23.3576 -191.388 -49.5984 550.066
lowerback 12.6188 0.926263 1.95655
upperback 2.29112 1.32713 -0.279204
thorax -4.61236 0.562759 -1.60771
lowerneck -2.68239 10.5607 2.58961
upperneck 9.01917 15.0167 -14.9845
head 4.4981 6.63592 -4.18493
rclavicle -5.06901e-015 -1.43125e-014
rhumerus -51.3191 15.1329 -94.7087
rradius 83.4651
rwrist 4.21478
rhand -29.9778 30.6759
rfingers 7.12502
rthumb -3.29607 0.721635
lclavicle -5.06901e-015 -1.43125e-014
lhumerus -78.8549 -7.6051 99.125
lradius 100.27
lwrist 16.8113
lhand -4.58536 -9.09706
lfingers 7.12502
lthumb 21.1918 19.7646
rfemur 11.5882 5.11464 18.8697
rtibia 32.7598
rfoot -9.68303 -7.10377
rtoes -24.7217
lfemur -30.9602 5.64441 -28.6325
ltibia 67.989
lfoot -12.6767 -6.81736
ltoes -10.72
2467
root -0.140925 17.4213 -23.5533 -190.894 -50.2676 550.065
lowerback 11.8828 1.02015 1.60116
upperback 1.98844 1.42079 -0.289229
thorax -4.52926 0.624449 -1.4214
lowerneck -2.57278 10.6023 2.2654
upperneck 9.00665 15.049 -14.5749
head 4.42199 6.66984 -4.01717
rclavicle -1.93815e-014 2.38542e-015
rhumerus -52.1028 16.0115 -95.9518
rradius 85.2637
rwrist 3.59182
rhand -29.2234 30.7896
rfingers 7.12502
rthumb -2.56743 0.82529
lclavicle -1.93815e-014 2.38542e-015
lhumerus -79.4969 -7.5469 98.8984
lradius 100.62
lwrist 16.7045
lhand -4.41116 -9.24962
lfingers 7.12502
lthumb 21.3591 19.5932
rfemur 12.0534 4.77518 18.818
rtibia 31.8023
rfoot -6.06935 -7.92328
rtoes -21.881
lfemur -30.845 5.89748 -28.81
ltibia 64.2095
lfoot -12.6428 -6.71305
ltoes -9.98879
2468
root -0.360655 17.5436 -23.7475 -190.441 -50.9541 550.067
lowerback 11.1955 1.07737 1.28203
upperback 1.72187 1.46939 -0.320233
thorax -4.43397 0.661896 -1.27005
lowerneck -2.65256 10.6651 1.93371
upperneck 9.02012 15.1215 -14.1474
head 4.38746 6.71496 -3.82957
rclavicle -8.13029e-014 7.95139e-016
rhumerus -52.7279 16.847 -97.1717
rradius 86.8018
rwrist 3.02085
rhand -28.373 31.0252
rfingers 7.12502
rthumb -1.74615 1.05259
lclavicle -8.13029e-014 7.95139e-016
lhumerus -79.8831 -7.43104 98.555
lradius 100.796
lwrist 16.4786
lhand -4.14635 -9.49128
lfingers 7.12502
lthumb 21.6134 19.3225
rfemur 12.4305 4.47513 18.7611
rtibia 31.055
rfoot -2.64806 -9.02827
rtoes -18.9539
lfemur -30.5889 6.07656 -29.0078
ltibia 60.3454
lfoot -12.4605 -6.40743
ltoes -9.71349
2469
root -0.583988 17.6497 -23.9398 -190.215 -51.6293 550.112
lowerback 10.73 1.12537 1.06315
upperback 1.50561 1.51515 -0.381798
thorax -4.4047 0.693196 -1.21027
lowerneck -2.95621 10.738 1.68449
upperneck 9.17317 15.2323 -13.723
head 4.44229 6.76443 -3.6376
rclavicle 1.45113e-014 1.43125e-014
rhumerus -53.3336 17.6162 -98.3511
rradius 88.1881
rwrist 2.49426
rhand -27.4941 31.2441
rfingers 7.12502
rthumb -0.897279 1.26628
lclavicle 1.45113e-014 1.43125e-014
lhumerus -80.2504 -7.2457 98.0895
lradius 100.978
lwrist 16.1485
lhand -3.73266 -9.53878
lfingers 7.12502
lthumb 22.0107 19.2288
rfemur 12.9294 4.09195 18.6919
rtibia 30.5249
rfoot 0.412154 -10.0962
rtoes -16.2427
lfemur -30.0652 6.17031 -29.1854
ltibia 56.4933
lfoot -12.2725 -5.98252
ltoes -9.19802
2470
root -0.808778 17.746 -24.128 -189.991 -52.3392 550.159
lowerback 10.2787 1.15117 0.845169
upperback 1.30489 1.53324 -0.407156
thorax -4.36811 0.710582 -1.10911
lowerneck -3.31228 10.8118 1.2588
upperneck 9.30537 15.3485 -13.2789
head 4.48472 6.80946 -3.41162
rclavicle -9.08446e-014 1.59028e-015
rhumerus -53.8969 18.2892 -99.3564
rradius 89.3637
rwrist 2.23916
rhand -26.6644 31.6064
rfingers 7.12502
rthumb -0.0959458 1.62666
lclavicle -9.08446e-014 1.59028e-015
lhumerus -80.6368 -6.9768 97.6518
lradius 101.212
lwrist 16.0313
lhand -3.3553 -9.53561
lfingers 7.12502
lthumb 22.3729 19.1889
rfemur 13.3089 3.51878 18.5743
rtibia 30.2437
rfoot 3.04542 -11.1073
rtoes -14.6108
lfemur -29.4896 6.11332 -29.3767
ltibia 52.6812
lfoot -12.2594 -5.29328
ltoes -8.92138
2471
root -1.03588 17.8264 -24.3135 -189.769 -53.0449 550.167
lowerback 9.8504 1.16703 0.666071
upperback 1.12263 1.53974 -0.479921
thorax -4.32243 0.720612 -1.07765
lowerneck -3.71983 10.8794 0.941127
upperneck 9.44215 15.4618 -12.8858
head 4.54824 6.85326 -3.21404
rclavicle -3.88624e-014 4.21423e-014
rhumerus -54.3617 18.902 -100.356
rradius 90.3252
rwrist 1.97524
rhand -25.861 31.9324
rfingers 7.12502
rthumb 0.679956 1.95375
lclavicle -3.88624e-014 4.21423e-014
lhumerus -81.0601 -6.74204 97.167
lradius 101.499
lwrist 15.8169
lhand -3.07496 -9.50369
lfingers 7.12502
lthumb 22.642 19.1882
rfemur 13.6353 2.58055 18.2642
rtibia 30.2012
rfoot 5.39352 -11.6904
rtoes -14.594
lfemur -28.8715 6.13133 -29.6116
ltibia 49.0145
lfoot -12.3885 -4.45338
ltoes -9.01413
2472
root -1.26136 17.8937 -24.4971 -189.706 -53.7556 550.322
lowerback 9.46498 1.16681 0.59039
upperback 0.954691 1.53715 -0.520944
thorax -4.28349 0.724004 -1.07086
lowerneck -4.01482 10.9442 0.652227
upperneck 9.45044 15.5614 -12.6168
head 4.5641 6.89663 -3.06783
rclavicle 2.61402e-014 -5.56597e-015
rhumerus -54.7959 19.3864 -101.282
rradius 91.1814
rwrist 1.72605
rhand -25.1088 32.3301
rfingers 7.12502
rthumb 1.40646 2.35498
lclavicle 2.61402e-014 -5.56597e-015
lhumerus -81.4426 -6.45283 96.7149
lradius 101.815
lwrist 15.71
lhand -2.94959 -9.40343
lfingers 7.12502
lthumb 22.7623 19.2737
rfemur 13.9007 1.42009 17.9868
rtibia 30.4095
rfoot 7.3792 -12.027
rtoes -15.1326
lfemur -28.2232 6.18892 -29.7435
ltibia 45.5433
lfoot -12.8004 -3.19212
ltoes -10.7625
2473
root -1.48743 17.9483 -24.6772 -189.658 -54.4841 550.495
lowerback 9.05827 1.1584 0.564658
upperback 0.800138 1.52695 -0.586494
thorax -4.21643 0.722317 -1.11585
lowerneck -4.27109 10.9919 0.445472
upperneck 9.41779 15.6331 -12.397
head 4.56861 6.93148 -2.95344
rclavicle -2.64384e-014 -1.66979e-014
rhumerus -55.1018 19.815 -102.205
rradius 91.774
rwrist 1.58888
rhand -24.6818 32.6642
rfingers 7.12502
rthumb 1.8189 2.69219
lclavicle -2.64384e-014 -1.66979e-014
lhumerus -81.6925 -6.24256 96.2589
lradius 102.164
lwrist 15.6868
lhand -2.86199 -9.32135
lfingers 7.12502
lthumb 22.8464 19.3455
rfemur 14.099 0.116458 17.6368
rtibia 30.8123
rfoot 8.90011 -12.1757
rtoes -15.8814
lfemur -27.6353 6.27382 -29.9076
ltibia 42.3639
lfoot -13.6137 -1.37312
ltoes -13.7363
2474
root -1.71182 17.9868 -24.8561 -189.655 -55.2257 550.683
lowerback 8.66951 1.12638 0.503422
upperback 0.659699 1.48356 -0.599983
thorax -4.14739 0.704866 -1.08312
lowerneck -4.35022 11.0396 0.21441
upperneck 9.21892 15.6894 -12.3188
head 4.5011 6.9655 -2.89281
rclavicle -7.09661e-014 6.99722e-014
rhumerus -55.4025 20.217 -103.062
rradius 92.2112
rwrist 1.43251
rhand -24.4113 32.8946
rfingers 7.12502
rthumb 2.08015 2.92498
lclavicle -7.09661e-014 6.99722e-014
lhumerus -81.7341 -5.91803 95.9001
lradius 102.517
lwrist 15.6262
lhand -2.93254 -9.27046
lfingers 7.12502
lthumb 22.7787 19.4047
rfemur 14.244 -1.37143 17.1818
rtibia 31.4132
rfoot 9.89532 -12.2965
rtoes -16.5721
lfemur -27.1429 6.51981 -30.1157
ltibia 39.5462
lfoot -14.0817 0.51542
ltoes -15.0886
